HIERARCHY
ROOT hip
{
	OFFSET 0.000000 0.000000 0.000000 
	CHANNELS 6 Xposition Yposition Zposition Xrotation Zrotation Yrotation
	JOINT abdomen
	{
		OFFSET 0.000000 3.402643 0.000000 
		CHANNELS 3 Xrotation Zrotation Yrotation
		JOINT chest
		{
			OFFSET 0.000000 8.438565 -0.680529 
			CHANNELS 3 Xrotation Zrotation Yrotation
			JOINT neck
			{
				OFFSET 0.000000 10.207942 -0.272212 
				CHANNELS 3 Xrotation Zrotation Yrotation
				JOINT head
				{
					OFFSET 0.000000 3.130431 0.000000 
					CHANNELS 3 Xrotation Zrotation Yrotation
					End Site
					{
						OFFSET 0.000000 3.130435 0.000000 
					}
				}
			}
			JOINT lCollar
			{
				OFFSET 3.470700 6.669187 -0.816635 
				CHANNELS 3 Yrotation Zrotation Xrotation
				JOINT lShldr
				{
					OFFSET 3.198488 0.000000 0.000000 
					CHANNELS 3 Zrotation Yrotation Xrotation
					JOINT lForeArm
					{
						OFFSET 10.139888 0.000000 0.000000 
						CHANNELS 3 Yrotation Zrotation Xrotation
						JOINT lHand
						{
							OFFSET 8.370511 0.000000 0.000000 
							CHANNELS 3 Zrotation Yrotation Xrotation
							End Site
							{
								OFFSET 4.083176 0.000000 0.000000 
							}
						}
					}
				}
			}
			JOINT rCollar
			{
				OFFSET -3.470700 6.669187 -0.816635 
				CHANNELS 3 Yrotation Zrotation Xrotation
				JOINT rShldr
				{
					OFFSET -3.198488 0.000000 0.000000 
					CHANNELS 3 Zrotation Yrotation Xrotation
					JOINT rForeArm
					{
						OFFSET -10.139888 0.000000 0.000000 
						CHANNELS 3 Yrotation Zrotation Xrotation
						JOINT rHand
						{
							OFFSET -8.370511 0.000000 0.000000 
							CHANNELS 3 Zrotation Yrotation Xrotation
							End Site
							{
								OFFSET -4.083176 0.000000 0.000000 
							}
						}
					}
				}
			}
		}
	}
	JOINT lThigh
	{
		OFFSET 5.308129 -1.633274 1.361059 
		CHANNELS 3 Xrotation Zrotation Yrotation
		JOINT lShin
		{
			OFFSET -2.041588 -20.007561 0.000000 
			CHANNELS 3 Xrotation Zrotation Yrotation
			JOINT lFoot
			{
				OFFSET 0.000000 -19.190928 -1.224953 
				CHANNELS 3 Xrotation Yrotation Zrotation
				End Site
				{
					OFFSET 0.000000 -2.449906 4.627600 
				}
			}
		}
	}
	JOINT rThigh
	{
		OFFSET -5.308129 -1.633274 1.361059 
		CHANNELS 3 Xrotation Zrotation Yrotation
		JOINT rShin
		{
			OFFSET 2.041588 -20.007561 0.000000 
			CHANNELS 3 Xrotation Zrotation Yrotation
			JOINT rFoot
			{
				OFFSET 0.000000 -19.190928 -1.224953 
				CHANNELS 3 Xrotation Yrotation Zrotation
				End Site
				{
					OFFSET 0.000000 -2.449906 4.627600 
				}
			}
		}
	}
}
MOTION
Frames: 11
Frame Time: 0.016667
-87.957672 47.528675 63.712399 9.693303 -4.695707 1.479252 0.000000 0.000000 0.000000 2.285426 -0.527344 -0.029386 -9.145223 5.353089 12.320624 4.552013 -4.049955 14.851789 -2.860564 9.567248 0.463413 -75.513359 -9.214561 10.324217 -14.622705 -1.144839 2.475831 -6.265721 -5.262977 20.889400 2.844387 -10.102155 0.516472 79.215309 11.165099 12.388016 18.475424 0.890706 2.547022 7.417962 6.534857 20.994001 -32.296783 15.024350 8.015895 41.523602 -2.997059 -2.715279 -9.588169 0.691684 -3.563573 -17.854031 -2.810870 -5.385506 29.554089 3.211980 -0.383364 -21.352325 -2.674183 3.843616 
-88.144035 47.437820 63.634567 9.789449 -5.120890 2.793877 0.000000 0.000000 0.000000 2.900570 -0.351562 -0.029356 -9.148453 5.431625 12.214626 4.728485 -4.050138 14.842049 -2.861207 9.645370 0.463401 -76.080750 -8.870952 8.752587 -14.975074 -1.133266 2.481247 -6.041338 -6.306672 19.985109 2.841862 -10.014752 0.506856 78.303986 12.968134 13.438677 18.475424 0.890706 2.547022 7.951813 6.385760 20.496656 -35.426659 15.398858 7.104307 44.808887 -2.841721 -2.119598 -4.869831 0.565234 -3.770472 -18.244167 -2.478917 -5.803471 30.136332 3.232371 -1.533176 -21.711792 -2.780797 3.582056 
-88.330154 47.347641 63.557560 9.875001 -5.552174 4.110361 0.000000 0.000000 0.000000 3.515715 -0.175781 -0.029327 -9.154031 5.500655 12.107722 4.915414 -4.050503 14.822571 -2.863604 9.732770 0.474650 -76.655647 -8.543800 7.180844 -15.327024 -1.131541 2.486540 -5.799425 -7.348691 19.089249 2.841076 -9.926864 0.505157 77.418938 14.780900 14.456681 18.465668 0.890272 2.547167 8.491062 6.244189 20.017742 -38.561264 15.711151 6.165634 48.099442 -2.718053 -1.543514 -0.165199 0.446183 -3.978821 -18.628077 -2.147731 -6.213453 30.698383 3.270829 -2.698186 -22.061689 -2.853987 3.339914 
-88.459915 47.407604 63.661945 9.622006 -5.817195 5.064515 0.000000 0.000000 0.000000 4.209167 -0.097656 -0.107438 -9.069056 5.371824 11.860091 6.236018 -3.700577 14.287964 -2.876985 9.728859 0.553205 -77.250679 -7.771578 5.343285 -15.238965 -1.134917 2.478163 -5.458497 -7.148345 20.393690 2.856435 -9.922497 0.594992 77.013306 16.962934 15.048321 16.616747 0.924816 2.442265 9.599800 6.771936 23.785845 -40.784222 15.982781 6.593028 50.810944 -2.562102 -2.002737 -0.396100 0.741512 -3.010315 -17.960392 -1.775898 -6.038676 30.263865 3.094086 -2.773463 -21.950642 -2.988684 4.273494 
-88.589935 47.467358 63.765488 9.361075 -6.079927 6.010053 0.000000 0.000000 0.000000 4.912139 -0.009766 -0.175783 -8.991630 5.252403 11.602787 7.549983 -3.348639 13.753910 -2.892142 9.734200 0.643022 -77.862625 -7.008935 3.489590 -15.150721 -1.140872 2.479198 -5.108219 -6.958743 21.702093 2.871905 -9.927870 0.684826 76.635330 19.166521 15.616275 14.748801 0.958991 2.341956 10.740378 7.233615 27.576288 -43.023972 16.277796 7.036079 53.530937 -2.375165 -2.451915 -0.645563 1.038371 -2.048796 -17.316982 -1.415128 -5.850435 29.848719 2.919254 -2.855939 -21.842552 -3.127437 5.181258 
-88.779022 47.480324 63.685402 9.365039 -6.257055 5.806169 0.000000 0.000000 0.000000 5.703505 -0.185547 -0.117219 -8.996293 5.053970 11.461365 8.251963 -3.605499 13.708690 -2.899248 9.646701 0.631767 -78.200195 -5.696522 0.866131 -15.679160 -1.127266 2.482307 -4.772361 -6.754568 23.168776 2.872970 -10.015754 0.684839 77.660736 23.945177 13.941099 7.627709 1.081438 2.381115 10.897591 9.285042 33.551476 -45.705334 17.163927 7.775048 55.501644 -2.191795 -1.923718 -0.269656 1.422201 -1.453619 -17.316492 -0.810100 -5.095974 29.363482 3.246683 -4.589131 -21.515772 -2.705914 4.632536 
-88.967346 47.493347 63.606003 9.370265 -6.434229 5.601272 0.000000 0.000000 0.000000 6.504214 -0.361328 -0.048889 -9.000798 4.855475 11.311218 8.962461 -3.872106 13.654660 -2.898263 9.558817 0.631779 -78.609688 -4.409097 -1.754357 -16.197847 -1.113351 2.485279 -4.438796 -6.568559 24.641151 2.875773 -10.103148 0.694452 78.551796 28.744745 12.288603 0.535482 1.195770 2.441777 11.264837 11.292019 39.546112 -48.355686 18.054573 8.489821 57.452827 -2.026028 -1.359526 0.116795 1.816121 -0.837575 -17.319572 -0.204869 -4.381082 28.858137 3.523049 -6.289694 -21.195593 -2.279919 4.085635 
-88.993950 47.520462 63.681950 9.014590 -6.435713 5.463233 0.000000 0.000000 0.000000 7.383561 -0.878906 -0.048972 -8.901977 5.010784 11.735415 9.576092 -3.866923 13.967722 -2.913041 9.554359 0.721582 -78.843605 -3.533367 -3.941446 -14.877070 -1.138794 2.482377 -5.315156 -6.629146 26.195444 2.891410 -10.098726 0.784295 78.391724 31.810753 12.973800 -1.225303 1.228220 2.441358 12.093806 9.499953 41.820377 -49.679638 18.403532 9.401427 57.853935 -2.016173 -0.076984 -0.340256 2.129324 -2.029706 -16.705704 -0.029784 -4.411523 28.698183 3.283889 -5.843537 -21.272661 -2.201468 4.234116 
-89.020042 47.547577 63.758743 8.657817 -6.437059 5.335993 0.000000 0.000000 0.000000 8.252912 -1.406250 -0.039290 -8.805805 5.146419 12.149955 10.187997 -3.871256 14.271038 -2.926171 9.550381 0.800144 -79.111580 -2.666955 -6.131657 -13.566490 -1.155422 2.477825 -6.191802 -6.662424 27.743498 2.905304 -10.094776 0.862824 78.266617 34.879925 13.654961 -2.976279 1.261135 2.438660 12.840985 7.657943 44.075184 -51.016113 18.770170 10.254511 58.245838 -2.055240 1.209560 -0.782032 2.482099 -3.207432 -16.088274 0.136263 -4.468337 28.540501 3.000361 -5.386797 -21.358955 -2.130415 4.367012 
-88.927971 47.573948 64.020760 8.836584 -6.607784 6.517943 0.000000 0.000000 0.000000 8.077130 -1.406250 -0.039290 -8.905717 4.975678 11.558623 9.925129 -4.221639 13.748493 -2.913041 9.554359 0.721582 -79.100761 -1.169333 -6.302097 -13.126307 -1.163459 2.472835 -7.243611 -6.810818 28.871443 2.889673 -10.099219 0.772981 78.605469 35.766262 11.766320 -2.884117 1.167797 2.429107 12.654764 4.190063 50.197960 -52.443497 17.964495 9.661635 56.679150 -2.210917 1.997883 -1.126557 2.435762 -3.620334 -15.698080 -0.029267 -4.972900 28.194910 3.123062 -6.179451 -21.500940 -2.560478 5.037160 
-88.836021 47.600246 64.282814 9.017628 -6.784698 7.690213 0.000000 0.000000 0.000000 7.910876 -1.406250 -0.029528 -9.009050 4.813079 10.977117 9.667810 -4.573016 13.236247 -2.898263 9.558817 0.631779 -79.093071 0.319662 -6.482898 -12.686126 -1.171608 2.467667 -8.302627 -6.945537 30.001377 2.875773 -10.103148 0.694452 78.914658 36.661751 9.849966 -2.802340 1.083297 2.429088 12.101106 0.771826 56.290623 -53.849800 17.115227 9.095301 55.133282 -2.347862 2.837259 -1.522149 2.356135 -4.005277 -15.306488 -0.204960 -5.458663 27.855656 3.274814 -6.985814 -21.649130 -3.010621 5.672120 
